<?xml version="1.0" encoding="UTF-8" standalone="no"?>
<svg
   xmlns:dc="http://purl.org/dc/elements/1.1/"
   xmlns:cc="http://creativecommons.org/ns#"
   xmlns:rdf="http://www.w3.org/1999/02/22-rdf-syntax-ns#"
   xmlns:svg="http://www.w3.org/2000/svg"
   xmlns="http://www.w3.org/2000/svg"
   viewBox="0 0 726.03998 726.03998"
   height="726.03998"
   width="726.03998"
   xml:space="preserve"
   id="svg2"
   version="1.1"><metadata
     id="metadata8"><rdf:RDF><cc:Work
         rdf:about=""><dc:format>image/svg+xml</dc:format><dc:type
           rdf:resource="http://purl.org/dc/dcmitype/StillImage" /></cc:Work></rdf:RDF></metadata><defs
     id="defs6" /><g
     transform="matrix(1.3333333,0,0,-1.3333333,0,726.04)"
     id="g10"><g
       transform="scale(0.1)"
       id="g12"><path
         id="path14"
         style="fill:#003366;fill-opacity:1;fill-rule:nonzero;stroke:none"
         d="M 2723.22,5446.41 C 1221.49,5446.41 0,4224.91 0,2723.19 0,1221.46 1221.49,1.10547 2723.22,1.10156 4224.94,1.10156 5445.3,1221.46 5445.3,2723.19 c 0,1501.72 -1220.36,2723.22 -2722.08,2723.22 z m 0,-216.37 c 1384.85,0 2505.72,-1122 2505.72,-2506.85 C 5228.94,1338.34 4108.07,217.465 2723.22,217.465 1338.36,217.469 216.363,1338.34 216.363,2723.19 c 0,1384.85 1121.997,2506.85 2506.857,2506.85" /><path
         id="path16"
         style="fill:#ffffff;fill-opacity:1;fill-rule:nonzero;stroke:none"
         d="m 2723.22,5230.04 c 1384.85,0 2505.72,-1122 2505.72,-2506.85 C 5228.94,1338.34 4108.07,217.465 2723.22,217.465 1338.36,217.469 216.363,1338.34 216.363,2723.19 c 0,1384.85 1121.997,2506.85 2506.857,2506.85" /><path
         id="path18"
         style="fill:#003366;fill-opacity:1;fill-rule:nonzero;stroke:none"
         d="M 1817.75,4394.05 C 1225.15,4071.7 822.125,3444.11 822.125,2723.42 822.125,1946.89 1290.7,1278.71 1959.5,984.172 l 52.88,164.248 c -600,271.01 -1018.13,873.85 -1018.13,1575 0,613 318.78,1152.1 799.88,1459.13 0.1,-0.02 1.02,0 1.12,0 L 2666,3415.3 l 57.38,-50.63 56.25,50.63 869.62,767.25 c 481.43,-306.83 801,-845.62 801,-1459.13 0,-701.15 -416.52,-1303.99 -1015.87,-1575 l 52.87,-164.248 c 668.48,294.538 1136.25,962.718 1136.25,1739.248 0,720.69 -403.36,1348.28 -995.62,1670.63 l -48.38,-42.75 -88.87,-78.75 -767.25,-677.25 -767.25,678.37 H 1955 l -87.75,77.63 -48.37,42.75 c -0.06,0.01 -0.88,0 -1.13,0" /><path
         id="path20"
         style="fill:#003366;fill-opacity:1;fill-rule:nonzero;stroke:none"
         d="M 2677.25,3890.05 C 2054.6,3866.3 1555.63,3351.78 1555.63,2723.42 c 0,-643.44 523.18,-1167.75 1166.62,-1167.75 411.83,0 775.19,214.33 983.25,537.75 l -132.75,113.63 c -174.65,-286.27 -490.11,-477 -850.5,-477 -549.95,0 -994.5,443.43 -994.5,993.37 0,549.95 444.55,994.5 994.5,994.5 360.3,0 675.82,-190.85 850.5,-477 l 131.63,112.5 c -208.12,322.79 -570.52,536.63 -982.13,536.63 -15.08,0 -30.06,0.57 -45,0" /><path
         id="path22"
         style="fill:#003366;fill-opacity:1;fill-rule:evenodd;stroke:none"
         d="M 2330.75,2920.3 V 1320.55 H 2504 v 866.25 h 430.88 v 173.25 H 2504 v 388.12 h 578.25 V 2920.3 H 2504 h -169.87 -3.38" /></g></g></svg>